<svg width="19" height="19" viewBox="0 0 19 19" fill="none" xmlns="http://www.w3.org/2000/svg">
<path d="M1.84521 17.125C1.36475 16.6445 1.00439 16.1201 0.76416 15.5518C0.529785 14.9834 0.418457 14.4004 0.430176 13.8027C0.447754 13.1992 0.588379 12.6045 0.852051 12.0186C1.12158 11.4268 1.51709 10.8701 2.03857 10.3486L10.0366 2.35059C10.5581 1.8291 11.1118 1.43652 11.6978 1.17285C12.2896 0.90332 12.8843 0.762695 13.4819 0.750977C14.0854 0.739258 14.6714 0.850586 15.2397 1.08496C15.8081 1.31934 16.3296 1.67676 16.8042 2.15723C17.2847 2.6377 17.6421 3.16211 17.8765 3.73047C18.1167 4.29883 18.231 4.88477 18.2192 5.48828C18.2075 6.08594 18.0669 6.67773 17.7974 7.26367C17.5337 7.84961 17.1411 8.40332 16.6196 8.9248L8.62158 16.9229C8.09424 17.4502 7.5376 17.8457 6.95166 18.1094C6.36572 18.3789 5.771 18.5195 5.16748 18.5312C4.56396 18.543 3.97803 18.4287 3.40967 18.1885C2.84717 17.9541 2.32568 17.5996 1.84521 17.125ZM2.96143 16.0088C3.38916 16.4365 3.86377 16.7061 4.38525 16.8174C4.90674 16.9287 5.43115 16.8877 5.9585 16.6943C6.4917 16.5068 6.98682 16.1846 7.44385 15.7275L15.4067 7.75586C15.8755 7.29297 16.2036 6.79785 16.3911 6.27051C16.5845 5.7373 16.6226 5.21289 16.5054 4.69727C16.394 4.17578 16.1245 3.70117 15.6968 3.27344C15.2632 2.8457 14.7856 2.5791 14.2642 2.47363C13.7485 2.3623 13.2271 2.40039 12.6997 2.58789C12.1724 2.76953 11.6772 3.0918 11.2144 3.55469L3.24268 11.5264C2.78564 11.9951 2.46045 12.4961 2.26709 13.0293C2.07959 13.5566 2.0415 14.0781 2.15283 14.5938C2.26416 15.1094 2.53369 15.5811 2.96143 16.0088ZM6.08154 7.50098L7.18896 6.38477L12.5151 11.7021L11.3989 12.8096L6.08154 7.50098Z" fill="#007AFF"/>
</svg>
