<svg width="19" height="17" viewBox="0 0 19 17" fill="none" xmlns="http://www.w3.org/2000/svg">
<path d="M3.11963 16.8721C2.17041 16.8721 1.45264 16.6289 0.966309 16.1426C0.47998 15.6621 0.236816 14.9531 0.236816 14.0156V3.31934C0.236816 2.37598 0.47998 1.66406 0.966309 1.18359C1.45264 0.703125 2.17041 0.462891 3.11963 0.462891H15.2134C16.1685 0.462891 16.8862 0.703125 17.3667 1.18359C17.853 1.66406 18.0962 2.37598 18.0962 3.31934V14.0156C18.0962 14.9531 17.853 15.6621 17.3667 16.1426C16.8862 16.6289 16.1685 16.8721 15.2134 16.8721H3.11963ZM3.10205 15.1406H15.2222C15.5913 15.1406 15.8726 15.0469 16.0659 14.8594C16.2651 14.666 16.3647 14.3789 16.3647 13.998V5.87695C16.3647 5.49609 16.2651 5.20898 16.0659 5.01562C15.8726 4.82227 15.5913 4.72559 15.2222 4.72559H3.10205C2.73291 4.72559 2.45166 4.82227 2.2583 5.01562C2.06494 5.20898 1.96826 5.49609 1.96826 5.87695V13.998C1.96826 14.3789 2.06494 14.666 2.2583 14.8594C2.45166 15.0469 2.73291 15.1406 3.10205 15.1406ZM7.479 7.78418C7.3208 7.78418 7.20947 7.75488 7.14502 7.69629C7.08643 7.63184 7.05713 7.52344 7.05713 7.37109V6.85254C7.05713 6.69434 7.08643 6.58887 7.14502 6.53613C7.20947 6.47754 7.3208 6.44824 7.479 6.44824H7.99756C8.1499 6.44824 8.2583 6.47754 8.32275 6.53613C8.38721 6.58887 8.41943 6.69434 8.41943 6.85254V7.37109C8.41943 7.52344 8.38721 7.63184 8.32275 7.69629C8.2583 7.75488 8.1499 7.78418 7.99756 7.78418H7.479ZM10.3442 7.78418C10.1919 7.78418 10.0835 7.75488 10.019 7.69629C9.96045 7.63184 9.93115 7.52344 9.93115 7.37109V6.85254C9.93115 6.69434 9.96045 6.58887 10.019 6.53613C10.0835 6.47754 10.1919 6.44824 10.3442 6.44824H10.8628C11.0269 6.44824 11.1382 6.47754 11.1968 6.53613C11.2554 6.58887 11.2847 6.69434 11.2847 6.85254V7.37109C11.2847 7.52344 11.2554 7.63184 11.1968 7.69629C11.1382 7.75488 11.0269 7.78418 10.8628 7.78418H10.3442ZM13.2271 7.78418C13.0688 7.78418 12.9575 7.75488 12.8931 7.69629C12.8345 7.63184 12.8052 7.52344 12.8052 7.37109V6.85254C12.8052 6.69434 12.8345 6.58887 12.8931 6.53613C12.9575 6.47754 13.0688 6.44824 13.2271 6.44824H13.7368C13.9009 6.44824 14.0122 6.47754 14.0708 6.53613C14.1294 6.58887 14.1587 6.69434 14.1587 6.85254V7.37109C14.1587 7.52344 14.1294 7.63184 14.0708 7.69629C14.0122 7.75488 13.9009 7.78418 13.7368 7.78418H13.2271ZM4.60498 10.6055C4.44678 10.6055 4.33545 10.5762 4.271 10.5176C4.2124 10.459 4.18311 10.3535 4.18311 10.2012V9.68262C4.18311 9.52441 4.2124 9.41602 4.271 9.35742C4.33545 9.29883 4.44678 9.26953 4.60498 9.26953H5.12354C5.27588 9.26953 5.38135 9.29883 5.43994 9.35742C5.50439 9.41602 5.53662 9.52441 5.53662 9.68262V10.2012C5.53662 10.3535 5.50439 10.459 5.43994 10.5176C5.38135 10.5762 5.27588 10.6055 5.12354 10.6055H4.60498ZM7.479 10.6055C7.3208 10.6055 7.20947 10.5762 7.14502 10.5176C7.08643 10.459 7.05713 10.3535 7.05713 10.2012V9.68262C7.05713 9.52441 7.08643 9.41602 7.14502 9.35742C7.20947 9.29883 7.3208 9.26953 7.479 9.26953H7.99756C8.1499 9.26953 8.2583 9.29883 8.32275 9.35742C8.38721 9.41602 8.41943 9.52441 8.41943 9.68262V10.2012C8.41943 10.3535 8.38721 10.459 8.32275 10.5176C8.2583 10.5762 8.1499 10.6055 7.99756 10.6055H7.479ZM10.3442 10.6055C10.1919 10.6055 10.0835 10.5762 10.019 10.5176C9.96045 10.459 9.93115 10.3535 9.93115 10.2012V9.68262C9.93115 9.52441 9.96045 9.41602 10.019 9.35742C10.0835 9.29883 10.1919 9.26953 10.3442 9.26953H10.8628C11.0269 9.26953 11.1382 9.29883 11.1968 9.35742C11.2554 9.41602 11.2847 9.52441 11.2847 9.68262V10.2012C11.2847 10.3535 11.2554 10.459 11.1968 10.5176C11.1382 10.5762 11.0269 10.6055 10.8628 10.6055H10.3442ZM13.2271 10.6055C13.0688 10.6055 12.9575 10.5762 12.8931 10.5176C12.8345 10.459 12.8052 10.3535 12.8052 10.2012V9.68262C12.8052 9.52441 12.8345 9.41602 12.8931 9.35742C12.9575 9.29883 13.0688 9.26953 13.2271 9.26953H13.7368C13.9009 9.26953 14.0122 9.29883 14.0708 9.35742C14.1294 9.41602 14.1587 9.52441 14.1587 9.68262V10.2012C14.1587 10.3535 14.1294 10.459 14.0708 10.5176C14.0122 10.5762 13.9009 10.6055 13.7368 10.6055H13.2271ZM4.60498 13.4355C4.44678 13.4355 4.33545 13.4092 4.271 13.3564C4.2124 13.2979 4.18311 13.1865 4.18311 13.0225V12.5127C4.18311 12.3545 4.2124 12.2461 4.271 12.1875C4.33545 12.1289 4.44678 12.0996 4.60498 12.0996H5.12354C5.27588 12.0996 5.38135 12.1289 5.43994 12.1875C5.50439 12.2461 5.53662 12.3545 5.53662 12.5127V13.0225C5.53662 13.1865 5.50439 13.2979 5.43994 13.3564C5.38135 13.4092 5.27588 13.4355 5.12354 13.4355H4.60498ZM7.479 13.4355C7.3208 13.4355 7.20947 13.4092 7.14502 13.3564C7.08643 13.2979 7.05713 13.1865 7.05713 13.0225V12.5127C7.05713 12.3545 7.08643 12.2461 7.14502 12.1875C7.20947 12.1289 7.3208 12.0996 7.479 12.0996H7.99756C8.1499 12.0996 8.2583 12.1289 8.32275 12.1875C8.38721 12.2461 8.41943 12.3545 8.41943 12.5127V13.0225C8.41943 13.1865 8.38721 13.2979 8.32275 13.3564C8.2583 13.4092 8.1499 13.4355 7.99756 13.4355H7.479ZM10.3442 13.4355C10.1919 13.4355 10.0835 13.4092 10.019 13.3564C9.96045 13.2979 9.93115 13.1865 9.93115 13.0225V12.5127C9.93115 12.3545 9.96045 12.2461 10.019 12.1875C10.0835 12.1289 10.1919 12.0996 10.3442 12.0996H10.8628C11.0269 12.0996 11.1382 12.1289 11.1968 12.1875C11.2554 12.2461 11.2847 12.3545 11.2847 12.5127V13.0225C11.2847 13.1865 11.2554 13.2979 11.1968 13.3564C11.1382 13.4092 11.0269 13.4355 10.8628 13.4355H10.3442Z" fill="#007AFF"/>
</svg>
