<svg width="27" height="19" viewBox="0 0 27 19" fill="none" xmlns="http://www.w3.org/2000/svg">
<path d="M4.35059 18.6279C3.47754 18.792 2.73926 18.7363 2.13574 18.4609C1.53809 18.1914 1.12207 17.749 0.887695 17.1338C0.65332 16.5244 0.647461 15.792 0.870117 14.9365L3.90234 3.44043C4.1543 2.50879 4.61426 1.76758 5.28223 1.2168C5.9502 0.666016 6.72949 0.390625 7.62012 0.390625C8.30566 0.390625 8.90625 0.52832 9.42188 0.803711C9.9375 1.0791 10.3389 1.46582 10.626 1.96387C10.9189 2.45605 11.0654 3.03027 11.0654 3.68652V14.1719C11.0654 15.2676 10.8223 16.1113 10.3359 16.7031C9.85547 17.3008 9.09961 17.7021 8.06836 17.9072L4.35059 18.6279ZM9.36035 3.72168C9.36035 3.23535 9.19922 2.84277 8.87695 2.54395C8.55469 2.24512 8.13281 2.0957 7.61133 2.0957C7.13672 2.0957 6.71191 2.25684 6.33691 2.5791C5.96777 2.89551 5.71289 3.31738 5.57227 3.84473L2.55762 15.2881C2.45215 15.6748 2.45215 16.0029 2.55762 16.2725C2.66309 16.5479 2.84473 16.7441 3.10254 16.8613C3.36621 16.9844 3.68262 17.0107 4.05176 16.9404L7.74316 16.2285C8.3584 16.1113 8.78027 15.9092 9.00879 15.6221C9.24316 15.3291 9.36035 14.8457 9.36035 14.1719V3.72168ZM22.6318 18.6279L18.9229 17.9072C17.8916 17.7021 17.1357 17.3008 16.6553 16.7031C16.1748 16.1113 15.9346 15.2676 15.9346 14.1719V3.68652C15.9346 3.03027 16.0781 2.45605 16.3652 1.96387C16.6523 1.46582 17.0537 1.0791 17.5693 0.803711C18.085 0.52832 18.6855 0.390625 19.3711 0.390625C20.2617 0.390625 21.041 0.666016 21.709 1.2168C22.377 1.76758 22.8369 2.50879 23.0889 3.44043L26.1211 14.9365C26.3438 15.792 26.3379 16.5244 26.1035 17.1338C25.8691 17.749 25.4502 18.1914 24.8467 18.4609C24.249 18.7363 23.5107 18.792 22.6318 18.6279ZM17.6396 3.72168V14.1719C17.6396 14.8457 17.7539 15.3291 17.9824 15.6221C18.2109 15.9092 18.6328 16.1113 19.248 16.2285L22.9395 16.9404C23.3086 17.0107 23.6221 16.9844 23.8799 16.8613C24.1436 16.7441 24.3281 16.5479 24.4336 16.2725C24.5391 16.0029 24.542 15.6748 24.4424 15.2881L21.4189 3.84473C21.2842 3.31738 21.0293 2.89551 20.6543 2.5791C20.2793 2.25684 19.8545 2.0957 19.3799 2.0957C18.8643 2.0957 18.4453 2.24512 18.123 2.54395C17.8008 2.84277 17.6396 3.23535 17.6396 3.72168ZM11.0654 13.082L5.79199 14.1982C5.56934 14.2451 5.35547 14.2041 5.15039 14.0752C4.94531 13.9463 4.82227 13.7676 4.78125 13.5391C4.73438 13.3164 4.77539 13.1055 4.9043 12.9062C5.0332 12.707 5.21191 12.5869 5.44043 12.5459L7.88379 12.0186L5.85352 10.208C5.68359 10.0615 5.58984 9.86816 5.57227 9.62793C5.56055 9.3877 5.63086 9.17969 5.7832 9.00391C5.93555 8.83398 6.13184 8.74609 6.37207 8.74023C6.61816 8.72852 6.82324 8.79883 6.9873 8.95117L9.91406 11.5879L11.0654 11.3506V13.082ZM15.9346 11.3506L17.0859 11.5879L20.0127 8.95117C20.1768 8.79883 20.3789 8.72852 20.6191 8.74023C20.8652 8.74609 21.0615 8.83398 21.208 9.00391C21.3721 9.17969 21.4453 9.3877 21.4277 9.62793C21.4102 9.86816 21.3164 10.0615 21.1465 10.208L19.125 12.0186L21.5684 12.5459C21.7852 12.5869 21.958 12.707 22.0869 12.9062C22.2217 13.1055 22.2656 13.3164 22.2188 13.5391C22.1719 13.7676 22.0459 13.9463 21.8408 14.0752C21.6416 14.2041 21.4307 14.2451 21.208 14.1982L15.9346 13.082V11.3506ZM15.9434 13.082L13.5088 12.5635L11.0654 13.082V11.3506L12.6562 11.0078V1.69141C12.6562 1.45703 12.7383 1.25781 12.9023 1.09375C13.0723 0.923828 13.2744 0.838867 13.5088 0.838867C13.7432 0.838867 13.9424 0.923828 14.1064 1.09375C14.2705 1.25781 14.3525 1.45703 14.3525 1.69141V11.0078L15.9434 11.3506V13.082Z" fill="#007AFF"/>
</svg>
